<svg width="1857" height="2507" viewBox="0 0 1857 2507" fill="none" xmlns="http://www.w3.org/2000/svg">
<path fill-rule="evenodd" clip-rule="evenodd" d="M1000.64 1054.08C997.841 1048.54 990.421 1049.26 985.525 1051.77C970.841 1062.51 986.205 1083.33 990.267 1096.43C1000.72 1121.85 1018.86 1146.69 1043.92 1158.58C1041.84 1183.84 1039.49 1209.06 1038.62 1234.41C1006.59 1274.15 952.584 1288.66 904.644 1299.81C829.349 1320.65 744.372 1277.97 718.959 1203.51C747.881 1187.07 757.241 1144.03 748.612 1114C747.862 1111.89 744.592 1110.95 743.43 1113.31C735.51 1129.61 736.566 1149.49 727.562 1165.59C641.14 1173.86 529.605 1206.48 472.988 1276.4C447.897 1311.38 437.958 1356.87 425.6 1397.41C399.233 1480.99 378.224 1566.26 352.365 1649.92L349.316 1634.09C340.962 1590.49 333.37 1546.29 339.013 1501.94L339.114 1499.82C340.957 1464.53 351.996 1398.96 324.64 1375.14C299.896 1356.22 264.051 1341.02 233 1349.74C177.743 1325.14 130.049 1283.72 71.1992 1267.59C53.0869 1263.86 27.0301 1268.27 31.3113 1292.85C43.1759 1335.84 92.8621 1352.53 126.828 1374.7C105.055 1380.6 78.5128 1407.09 95.5233 1430.19C95.6704 1430.59 95.8012 1430.91 95.932 1431.15C82.1369 1437.27 80.2047 1452.64 83.5902 1465.82C83.9334 1469.3 84.8488 1466.31 82.8038 1469.47C67.2384 1484.15 74.1188 1525.09 97.5667 1526.47C96.0317 1545.87 108.486 1564.71 124.261 1575.29C141.263 1586.69 165.847 1587.18 179.924 1602.78C212.972 1661.07 224.372 1729.89 227.975 1796.65C206.19 1804.81 186.644 1829.2 206.437 1849.9C206.827 1849.94 207.218 1849.99 207.614 1850.02C219.087 1880.65 223.517 1913.31 229.585 1945.3C238.921 1999.88 263.25 2050 294.317 2095.47C330.244 2155.66 426.852 2146.12 475.522 2107.27C475.327 2117.47 473.648 2127.6 476.911 2137.44C481.727 2148.07 493.469 2143.48 494.631 2133.01C520.36 2147.49 526.419 2099.71 497.819 2107.29C500.019 2072.75 501.294 2038.16 502.329 2003.56C534.709 2014.05 536.105 1960.31 502.984 1971.05L503.024 1956.2C503.267 1842.28 502.009 1727.97 486.981 1614.94C485.591 1606.49 483.237 1598.31 481.864 1589.91C481.717 1589.04 480.36 1589.29 480.356 1590.12C478.029 1748.35 488.367 1906.92 477.581 2065.21C468.602 2067.95 465.022 2078.26 458.374 2084.26C443.614 2097.9 423.514 2104.53 403.859 2106.85C348.819 2114.57 325.056 2097.75 300.545 2049.89C311.6 2057.28 326.539 2044.23 319.8 2032.53L319.589 2032.18C312.591 2019.79 292.83 2027.21 295.332 2041.09C270.689 2001.62 257.792 1957.1 248.267 1911.94L246.978 1906.54C242.348 1887.36 236.338 1865.39 225.219 1848.04C293.029 1830.75 359.361 1778.08 369.972 1705.81C387.188 1759.92 410.512 1812.82 432.742 1865.44C439.608 1883.74 442.468 1903.41 452.309 1920.39C454.598 1924.31 460.401 1923.3 461.696 1919.16C470.546 1879.58 443.727 1841.93 429.803 1806.29C418.432 1786.15 385.794 1694.19 365.558 1693.96C388.297 1594.26 418.625 1495.31 447.508 1396.84C475.437 1263.9 532.351 1238.26 652.922 1196.4C631.175 1307.27 531.884 1414.59 584.719 1530.87L586.003 1533.89C591.408 1546.71 595.896 1559.63 592.124 1573.7C588.462 1587.36 580.125 1599.21 573.454 1611.49C536.17 1680.87 561.835 1761.88 576.251 1834.13C594.461 1918.85 612.451 2003.65 631.274 2088.24C634.985 2105.11 637.39 2122.5 642.995 2138.85C645.888 2147.29 660.323 2146.49 659.389 2136.65C657.609 2117.54 652.247 2098.92 648.321 2080.16C624.883 1958.72 593.168 1838.71 573.003 1716.74C560.032 1626.45 611.098 1612.58 609.191 1554.24C602.251 1524.4 583.878 1497.78 584.933 1465.98C580.849 1368.66 651.716 1288.36 660.465 1193.7L675.913 1188.19C683.634 1185.42 691.346 1182.64 699.034 1179.78C658.567 1462.9 670.855 1752.2 691.084 2036.71C695.217 2049.84 691.285 2141.55 708.611 2133.41C709.486 2138.53 712.208 2143.57 718.125 2143.54C771.857 2144.04 825.605 2144.89 879.338 2145.53C905.184 2143.15 940.708 2153.02 962.692 2138.1C988.073 2130.85 990.991 2062.09 997.777 2037.58L1000.42 2019.75C1043.55 1728.49 1082.15 1431.21 1051.15 1137.06C1094.28 1138.72 1103.18 1185.29 1106.38 1219.19C1114.38 1294.03 1162.71 1358.48 1165.03 1434.18C1165.23 1452.54 1161.76 1470.33 1154.42 1487.19C1134.95 1528.5 1101.28 1576.26 1126.45 1622.4C1156.21 1658.32 1153.64 1667.78 1142.71 1712.16C1111.99 1858.9 1060.96 1999.97 1012.42 2141.46C1022.96 2196.45 1086.4 1992.3 1092.37 1976.91C1120.45 1991.03 1135.79 1944.15 1103.58 1940.82C1124.27 1871.54 1143.31 1801.75 1159.16 1731.18L1159.58 1729.19C1166.58 1696.59 1180.36 1658.42 1157.1 1629.5C1097.13 1568.83 1196.72 1501.02 1184.16 1427.52C1195 1435.57 1211.43 1427.1 1211.18 1413.59C1211.67 1398.37 1191.24 1390.58 1181.41 1402.19C1171.3 1342.56 1136.13 1290.5 1125.49 1231.05L1125.01 1228.26C1121.41 1207.24 1120.39 1185.13 1110.07 1165.98C1124.12 1175.11 1139.07 1182.48 1154.45 1188.99C1126.95 1211.97 1180.21 1232.95 1175.8 1197.45C1326.63 1241.1 1360.72 1301.98 1416.1 1441.78C1405.76 1431.73 1388.04 1444.74 1394.23 1457.56C1399.17 1471.07 1420.72 1467.12 1420.71 1452.72L1423.24 1458.74C1456.82 1539.07 1487.38 1621.34 1502.74 1707.31C1472.61 1703.05 1480.28 1751.22 1507.58 1737.64C1518.54 1814.09 1518.71 1891.63 1517.37 1968.7C1491.96 1955.36 1491.19 2000.67 1517.13 1987.75C1516.18 2050.91 1514.79 2114.06 1513.74 2177.22C1513.53 2190.66 1534.26 2190.59 1534.58 2177.22C1537 2080.18 1541.42 1982.96 1539.32 1885.89C1541.29 1717.41 1492.88 1555.02 1420.74 1404.09C1356.91 1230.32 1268.74 1210.55 1106.53 1160.03C1091.55 1137.79 1059.56 1116.76 1033.46 1130.73C1018.86 1107.14 1011.44 1079.21 1000.64 1054.08ZM1278.56 1659.74C1277.96 1657.59 1274.9 1658.13 1274.8 1660.24C1273.45 1687.5 1274.66 1714.94 1276.52 1742.32C1277.65 1759.03 1279.04 1775.73 1280.21 1792.33C1283.34 1836.12 1285.85 1879.97 1287.77 1923.84C1287.1 1923.56 1286.41 1923.32 1285.69 1923.12C1282.39 1922.22 1279.08 1922.22 1275.78 1923.12C1272.84 1923.94 1270.27 1925.38 1268.05 1927.46L1267.58 1927.91C1265.76 1929.6 1264.47 1931.59 1263.72 1933.9C1262.65 1935.95 1262.11 1938.14 1262.11 1940.49L1262.12 1941.08C1262.13 1944.44 1262.97 1947.57 1264.67 1950.48C1266.32 1953.28 1268.54 1955.5 1271.34 1957.17C1274.25 1958.85 1277.37 1959.69 1280.74 1959.7C1281.1 1959.74 1281.46 1959.77 1281.82 1959.79C1284.32 1959.88 1286.66 1959.36 1288.81 1958.23L1289.14 1958.13V1958.13C1289.96 1980.39 1290.63 2002.66 1291.12 2024.94C1291.56 2044.35 1292.15 2063.76 1292.54 2083.17L1292.72 2092.88V2092.88L1293.08 2114.34C1293.19 2123.17 1293.14 2131.62 1296.14 2139.94L1296.5 2140.9C1298.65 2146.46 1300.34 2154.19 1306.11 2157.28C1310.72 2159.75 1316.93 2158.84 1319.58 2154.03C1321.8 2150.01 1319.87 2144.22 1316.59 2141.5C1316.65 2141.32 1316.75 2141.16 1316.83 2140.98C1317.34 2139.51 1318.11 2138.12 1318.56 2136.63C1320 2131.92 1319.61 2126.9 1319.63 2122.01C1319.63 2113.38 1319.33 2104.74 1319.1 2096.12C1318.6 2077.77 1318.01 2059.44 1317.29 2041.11C1314.86 1979.61 1310.29 1918.12 1305.05 1856.79L1303.27 1836.1C1300.9 1808.57 1298.45 1781.02 1294.98 1753.64C1294.81 1752.33 1294.65 1751.02 1294.47 1749.71C1296.33 1748.78 1298.07 1747.49 1299.44 1746.05C1304.95 1740.26 1308.29 1731.62 1311.42 1724.16L1312.14 1722.47C1315.54 1714.52 1318.68 1706.47 1320.3 1697.94L1320.45 1697.15C1321.19 1693.52 1322.65 1687.07 1318.79 1685.31C1316.78 1684.4 1315.51 1685.05 1314.85 1687.06C1314.77 1687.32 1314.84 1687.62 1314.98 1687.85C1313.4 1690.28 1310.91 1692.56 1309.34 1694.81L1303.97 1702.5V1702.5L1301.32 1706.36C1297.95 1711.31 1294.35 1716.06 1290.64 1720.73C1287.72 1700.19 1284.14 1679.74 1278.56 1659.74ZM1058.3 2117.45C1051.58 2112.18 1040.65 2115.04 1040.65 2124.76C1040.65 2134.52 1051.6 2137.33 1058.3 2132.07L1058.64 2131.82V2131.82L1058.96 2131.56C1062.61 2128.71 1062.73 2121.28 1059.23 2118.18L1058.96 2117.95C1058.75 2117.77 1058.53 2117.61 1058.3 2117.45ZM1350.99 2098.46L1350.41 2098.48C1347.37 2098.48 1344.54 2099.24 1341.91 2100.78C1340.76 2101.65 1339.64 2102.53 1338.49 2103.42C1336.4 2105.51 1334.96 2108 1334.16 2110.86L1333.55 2115.34V2115.34C1333.47 2117.66 1333.95 2119.82 1335.01 2121.83C1335.7 2123.92 1336.86 2125.74 1338.49 2127.26C1340.03 2128.91 1341.83 2130.07 1343.92 2130.74C1345.76 2131.72 1347.73 2132.21 1349.83 2132.21L1350.41 2132.2C1353.46 2132.2 1356.29 2131.43 1358.93 2129.89C1360.07 2129.03 1361.2 2128.14 1362.34 2127.26C1364.42 2125.17 1365.87 2122.68 1366.67 2119.82C1366.87 2118.33 1367.06 2116.82 1367.28 2115.34C1367.36 2113.01 1366.87 2110.86 1365.82 2108.84C1365.14 2106.75 1363.98 2104.94 1362.34 2103.42C1360.8 2101.77 1359.01 2100.6 1356.91 2099.93C1355.07 2098.96 1353.09 2098.47 1350.99 2098.46V2098.46ZM585.767 2067.37L581.482 2067.94V2067.94C577.379 2068.88 574.079 2071.9 571.872 2075.35C570.693 2077.2 570.057 2079.2 569.959 2081.34C569.483 2083.46 569.583 2085.61 570.253 2087.75C570.744 2089.84 571.707 2091.67 573.13 2093.23C573.619 2094 574.193 2094.7 574.845 2095.32C576.187 2097.56 578.213 2099.03 580.307 2100.54C582.071 2101.67 583.985 2102.27 586.044 2102.37C587.401 2102.73 588.774 2102.73 590.147 2102.37C592.191 2102.27 594.103 2101.67 595.869 2100.54C596.913 2099.74 597.96 2098.92 598.991 2098.12C599.905 2097.05 600.757 2095.96 601.558 2094.81C602.095 2093.55 602.62 2092.31 603.142 2091.07C604.108 2088.07 603.634 2085.43 603.109 2082.43C603.029 2081.93 602.896 2081.47 602.717 2080.98L602.364 2080.03C601.423 2077.54 600.92 2076.7 599.253 2074.54L598.617 2073.68C598.299 2073.26 597.973 2072.85 597.6 2072.47C596.555 2071.4 595.066 2070.49 593.891 2069.56C591.374 2068.11 588.66 2067.39 585.767 2067.37ZM1140.76 2056.9L1140.22 2056.91C1137.85 2056.92 1135.62 2057.51 1133.56 2058.71L1130.88 2060.78V2060.78C1129.25 2062.43 1128.12 2064.36 1127.48 2066.61C1127.33 2067.78 1127.17 2068.96 1127.01 2070.12C1126.94 2071.93 1127.32 2073.63 1128.15 2075.22C1128.67 2076.86 1129.59 2078.26 1130.88 2079.47C1132.07 2080.75 1133.5 2081.67 1135.13 2082.2C1136.56 2082.95 1138.09 2083.34 1139.72 2083.34L1140.22 2083.33C1142.6 2083.33 1144.83 2082.73 1146.89 2081.53L1149.57 2079.47V2079.47C1151.2 2077.82 1152.33 2075.88 1152.97 2073.63C1153.11 2072.46 1153.28 2071.3 1153.44 2070.12C1153.51 2068.3 1153.13 2066.61 1152.3 2065.03C1151.76 2063.4 1150.86 2061.98 1149.57 2060.78C1148.37 2059.49 1146.95 2058.57 1145.32 2058.05C1143.89 2057.3 1142.38 2056.92 1140.76 2056.9V2056.9ZM1248.65 2051.49C1245.23 2051.46 1241.77 2052.43 1238.97 2054.41C1236.26 2056.33 1234.2 2058.41 1232.87 2061.54C1232.51 2062.39 1232.15 2063.22 1231.84 2064.07C1230.44 2067.81 1230.18 2071.58 1232.12 2075.24C1234 2078.79 1238.05 2080.34 1241.69 2081.4C1244.76 2082.32 1248.24 2082.47 1251.3 2081.37C1252.82 2080.83 1254.3 2080.26 1255.68 2079.43C1258.24 2077.84 1259.63 2075.96 1261.35 2073.63C1262.69 2071.35 1263.36 2068.86 1263.36 2066.21C1263.36 2063.55 1262.69 2061.08 1261.35 2058.77C1258.72 2054.27 1253.85 2051.53 1248.65 2051.49ZM1421.92 2054.65C1417.61 2054.65 1413.82 2056.65 1411.22 2060.01C1408.59 2063.43 1407.62 2067.68 1408.78 2071.92C1410.01 2076.4 1413.72 2080.32 1418.31 2081.45C1421.71 2082.29 1424.49 2082.25 1427.87 2081.68C1430.73 2081.19 1432.92 2079.49 1435.12 2077.72C1437.62 2075.68 1438.39 2071.95 1437.98 2068.94C1437.58 2065.93 1436.19 2063.97 1434.08 2062.19L1434.07 2062.14L1434.85 2062.74C1434.56 2062.48 1434.27 2062.21 1433.97 2061.93C1433.87 2061.76 1433.79 2061.58 1433.71 2061.4C1432.5 2059.34 1430.87 2057.72 1428.82 2056.51C1426.68 2055.27 1424.39 2054.65 1421.92 2054.65ZM415.629 2005.12C413.259 2004.48 410.872 2004.48 408.502 2005.12C406.751 2005.52 405.233 2006.33 403.94 2007.52C402.63 2008.37 401.561 2009.46 400.752 2010.82L400.492 2011.28C398.627 2014.45 398.334 2018.08 399.135 2021.61C400.131 2025.98 404.152 2029.96 408.502 2030.99L408.648 2031.01V2031.01L408.795 2031.05C410.56 2031.61 412.344 2031.69 414.107 2031.28C415.891 2031.2 417.542 2030.68 419.061 2029.7C420.99 2028.45 422.608 2026.85 423.85 2024.92C424.833 2023.38 425.354 2021.73 425.437 2019.95C425.746 2018.77 425.746 2017.59 425.437 2016.42C425.354 2014.63 424.833 2012.98 423.85 2011.44L421.759 2008.74V2008.74L421.545 2008.57V2008.57C419.878 2006.9 417.902 2005.75 415.629 2005.12ZM580.204 1918.58C558.774 1918.58 558.806 1951.84 580.204 1951.84C601.633 1951.84 601.602 1918.58 580.204 1918.58ZM1364.83 1914.37C1362.57 1913.86 1360.31 1913.96 1358.07 1914.67C1356.72 1915.24 1355.38 1915.81 1354.04 1916.36L1350.6 1919.02V1919.02C1349.97 1919.56 1349.66 1920.14 1349.07 1920.91L1348.33 1921.88C1347.27 1923.3 1347.24 1923.6 1346.08 1926.64C1345.29 1929.55 1345.29 1932.46 1346.08 1935.37C1346.45 1936.78 1347.02 1938.1 1347.76 1939.33C1348.43 1940.5 1349.24 1941.54 1350.14 1942.49L1350.6 1942.96C1352.14 1944.61 1353.95 1945.77 1356.05 1946.46C1357.37 1947.23 1358.79 1947.6 1360.31 1947.6C1362.57 1948.11 1364.83 1948.01 1367.06 1947.31C1368.42 1946.73 1369.76 1946.16 1371.1 1945.61L1374.54 1942.96L1377.18 1939.52L1378.03 1937.51V1937.51L1378.88 1935.48L1379.49 1930.99C1379.57 1928.65 1379.1 1926.49 1378.04 1924.46C1377.63 1923.04 1376.91 1921.78 1375.86 1920.73C1375.11 1919.46 1374.1 1918.44 1372.82 1917.69C1371.77 1916.64 1370.51 1915.92 1369.09 1915.52C1367.77 1914.75 1366.35 1914.37 1364.83 1914.37ZM304.861 1890.61C303.077 1890.55 301.41 1890.92 299.873 1891.74C299.334 1891.92 298.809 1892.15 298.304 1892.41C296.326 1893.57 294.757 1895.14 293.596 1897.1C292.648 1898.61 292.125 1900.23 292.043 1901.97C291.688 1903.55 291.72 1905.14 292.148 1906.72L292.288 1907.19C292.648 1908.48 293.187 1909.68 293.905 1910.77C293.974 1910.9 294.054 1911.03 294.152 1911.15C295.247 1912.88 296.702 1914.3 298.5 1915.37C300.494 1916.51 302.636 1917.1 304.957 1917.12C309.583 1917.12 313.572 1914.62 316.007 1910.77C316.351 1910.23 316.547 1909.55 316.79 1908.99C317.005 1908.47 317.348 1907.8 317.529 1907.19C318.149 1904.87 318.149 1902.55 317.529 1900.23C317.121 1898.52 316.351 1897.04 315.19 1895.78C314.26 1894.36 313.034 1893.23 311.512 1892.41C309.626 1891.31 307.599 1890.72 305.448 1890.62L304.861 1890.61ZM1209.69 1874.34C1207.43 1873.72 1205.18 1873.67 1202.93 1874.2L1202.37 1874.34C1200.57 1874.77 1199.01 1875.58 1197.68 1876.79C1196.19 1877.77 1194.99 1879.07 1194.13 1880.67C1192.88 1882.81 1192.26 1885.13 1192.25 1887.62C1192.26 1890.1 1192.88 1892.43 1194.13 1894.57C1195.35 1896.65 1197.01 1898.28 1199.08 1899.51L1200.88 1900.37V1900.37C1202.38 1901.32 1203.98 1901.83 1205.72 1901.91C1206.88 1902.22 1208.04 1902.22 1209.18 1901.91C1210.36 1901.91 1211.46 1901.62 1212.47 1901.03C1213.58 1900.72 1214.53 1900.16 1215.35 1899.34C1216.77 1898.43 1217.88 1897.22 1218.7 1895.7L1220.02 1892.57V1892.57L1220.48 1889.11V1889.11L1220.02 1885.66V1885.66L1219.3 1883.96V1883.96C1218.65 1881.62 1217.47 1879.59 1215.76 1877.87C1214.04 1876.17 1212.01 1874.99 1209.69 1874.34ZM399.019 1846.75C396.634 1846 394.262 1845.9 391.892 1846.43C390.292 1846.43 388.788 1846.83 387.396 1847.65C385.876 1848.08 384.57 1848.83 383.457 1849.94C381.513 1851.2 379.991 1852.87 378.863 1854.94L377.067 1859.21V1859.21C375.988 1861.98 376.38 1866.05 377.033 1868.83C377.572 1871.12 378.618 1873.11 380.171 1874.81C380.956 1876.14 382.002 1877.19 383.328 1877.97C384.841 1879.35 386.587 1880.33 388.567 1880.91L389.113 1881.06L389.309 1881.11C389.343 1881.13 389.374 1881.13 389.407 1881.13C389.424 1881.14 389.458 1881.14 389.474 1881.14C390.257 1881.34 391.058 1881.45 391.892 1881.48C394.262 1882.01 396.634 1881.91 399.019 1881.16C400.425 1880.57 401.847 1879.96 403.269 1879.36C404.479 1878.44 405.674 1877.51 406.882 1876.58C407.814 1875.37 408.745 1874.16 409.677 1872.97C410.987 1870.92 411.688 1868.7 411.786 1866.33C412.213 1864.74 412.213 1863.17 411.786 1861.58C411.786 1859.97 411.377 1858.48 410.578 1857.09C409.857 1854.86 408.631 1852.95 406.882 1851.33C405.674 1850.4 404.479 1849.47 403.269 1848.55C401.847 1847.94 400.425 1847.34 399.019 1846.75ZM1441.62 1788.21C1439.16 1787.54 1436.69 1787.54 1434.22 1788.21L1430.9 1789.6V1789.6C1429.27 1790.48 1427.97 1791.67 1426.99 1793.2C1425.75 1794.53 1424.92 1796.12 1424.49 1797.94C1423.53 1800.42 1423.64 1804.36 1424.41 1806.9C1425.28 1809.78 1426.62 1812.07 1428.69 1814.23C1432.14 1817.79 1437.44 1818.82 1442.13 1817.74C1443.42 1817.45 1444.65 1816.87 1445.76 1816.17C1449.31 1813.98 1451.69 1810.15 1451.68 1805.92C1451.68 1805.46 1451.64 1805 1451.58 1804.55C1451.81 1803.61 1451.89 1802.65 1451.86 1801.63L1451.36 1797.94V1797.94L1451.33 1797.84C1450.68 1795.5 1449.5 1793.47 1447.79 1791.76C1446.2 1790.19 1444.35 1789.05 1442.24 1788.37L1441.7 1788.21H1441.62ZM208.106 1421C212.572 1384.37 229.362 1344.97 280.572 1366.47L284.376 1367.9C297.047 1372.7 311.813 1379 319.525 1390.09C324.837 1397.73 323.041 1412.53 323.775 1421.44C327.114 1450.42 325.323 1479.35 321.844 1508.21C317.354 1575.84 331.569 1645.92 359.87 1707.39C331.546 1753.24 293.639 1796 241.929 1815.11C239.742 1762.98 229.54 1711.81 218.683 1660.95L218.255 1658.73C213.913 1635.79 211.74 1612.25 196.681 1593.18C166.051 1559.91 123.922 1578.74 103.764 1525.3C107.998 1523.15 105.661 1515.83 100.559 1517.24C82.8797 1520.37 80.0076 1487.59 92.1075 1479.69C104.716 1472 92.0225 1457.81 97.3892 1447.57C100.381 1443.15 106.838 1443.01 109.765 1437.92C117.524 1419.2 78.6966 1407.2 124.357 1386.09C133.702 1382.77 144.148 1384.83 153.573 1384.79C167.439 1386.09 178.458 1395.86 191.138 1398.93C177.332 1434.7 212.168 1469.13 243.612 1440.57C260.722 1456.75 279.856 1493.63 238.265 1476.44C217.908 1462.84 200.382 1445.28 176.751 1436.91L176.252 1436.75C167.48 1433.87 129.093 1415.22 130.997 1431.37C145.375 1445.25 169.09 1445.08 185.742 1456.35C208.829 1467.03 223.592 1492.91 251.229 1492.56C257.601 1531.26 213.699 1507.71 197.35 1497.04L192.817 1494.58C169.757 1482.11 146.35 1470.57 119.457 1470.42C112.036 1470.37 112.069 1481.81 119.457 1481.91C154.505 1482.13 183.03 1504.05 212.389 1520.34C215.279 1542.93 182.208 1533.04 169.659 1529.71C156.501 1527.86 135.369 1513.62 123.853 1521.14C119.35 1532.72 139.17 1531.86 146.07 1535.37C114.566 1550.51 142.168 1560.04 150.614 1536.78L153.089 1537.62C174.184 1544.71 225.337 1559.31 219.253 1523.56C226.974 1526.98 236.388 1529.03 244.919 1527.13C266.195 1558.61 300.132 1546.43 250.804 1524.97C261.92 1519.8 265.632 1499.83 254.955 1492.39C293.783 1490.02 264.956 1449.27 248.885 1435.69C250.402 1434.15 251.872 1432.59 253.242 1431C262.509 1435.42 272.25 1438.1 282.666 1439.05C292.636 1439.95 294.857 1422.97 285.018 1421.58C274.474 1420.1 264.763 1417.28 255.479 1411.98C241.408 1405.91 236.605 1432.02 222.523 1432.95C214.841 1434.47 209.645 1427.73 208.106 1421ZM535.008 1758.02C531.608 1758.02 528.585 1759.44 526.117 1761.7C523.649 1763.95 522.586 1767.34 522.439 1770.58C522.373 1772.31 522.733 1773.93 523.518 1775.43C524.025 1776.99 524.891 1778.33 526.117 1779.48C528.405 1781.75 531.789 1783.15 535.008 1783.15C538.408 1783.15 541.432 1781.73 543.902 1779.48C546.369 1777.2 547.433 1773.83 547.58 1770.58C547.646 1768.86 547.284 1767.24 546.501 1765.74C546.045 1764.34 545.298 1763.1 544.259 1762.04L543.902 1761.7C541.612 1759.41 538.23 1758.02 535.008 1758.02ZM431.983 1680.46L431.438 1680.47C428.561 1680.49 425.895 1681.21 423.412 1682.65C422.333 1683.48 421.254 1684.3 420.19 1685.13C418.214 1687.13 416.857 1689.47 416.103 1692.17C415.335 1694.98 415.335 1697.81 416.103 1700.62C416.365 1702.24 416.97 1703.81 417.918 1705.17C419.325 1707.5 421.187 1709.39 423.543 1710.77C425.978 1712.2 428.61 1712.9 431.438 1712.92C434.265 1712.9 436.898 1712.2 439.334 1710.77C441.688 1709.39 443.551 1707.5 444.941 1705.17C445.905 1703.81 446.51 1702.24 446.772 1700.62C447.54 1697.81 447.54 1694.98 446.772 1692.17C446.073 1689.66 444.854 1687.46 443.099 1685.57L442.685 1685.13C441.246 1683.58 439.546 1682.48 437.568 1681.84C435.83 1680.93 433.968 1680.47 431.983 1680.46ZM1218.25 1681.34C1217.04 1681.01 1215.85 1681.01 1214.64 1681.34C1212.84 1681.42 1211.16 1681.96 1209.61 1682.94C1208.69 1683.66 1207.78 1684.37 1206.86 1685.07L1206.06 1686.03C1204.36 1688.11 1204.31 1688.46 1203 1691.63C1202.46 1693.39 1202.38 1695.16 1202.77 1696.92C1202.77 1698.12 1203.08 1699.23 1203.67 1700.26C1204 1701.39 1204.55 1702.37 1205.39 1703.19C1205.98 1704.18 1206.76 1704.98 1207.76 1705.58C1209.03 1706.74 1210.54 1707.54 1212.27 1707.95L1215.79 1708.42V1708.42C1216.24 1708.36 1216.72 1708.29 1217.17 1708.24C1217.73 1708.22 1218.26 1708.16 1218.79 1708.06L1219.32 1707.94V1707.94L1219.8 1707.82C1220.44 1707.63 1221.06 1707.38 1221.67 1707.06C1222.81 1706.74 1223.81 1706.16 1224.66 1705.31C1226.13 1704.37 1227.31 1703.09 1228.16 1701.5L1228.39 1700.98V1700.98C1228.7 1700.42 1228.96 1699.85 1229.16 1699.23C1229.71 1698.25 1229.99 1697.2 1230.01 1696.07C1230.33 1694.57 1230.31 1693.08 1229.92 1691.6L1229.78 1691.1L1228.52 1688.11C1227.87 1687.1 1227.18 1686.06 1226.3 1685.23C1225.77 1684.76 1224.47 1683.75 1223.74 1683.24L1223.29 1682.94V1682.94C1221.74 1681.96 1220.05 1681.42 1218.25 1681.34ZM1415.34 1657.95C1412.98 1648.68 1400.82 1645.75 1394.2 1652.38C1387.58 1659 1390.51 1671.17 1399.77 1673.52L1400.84 1673.78V1673.78C1409.8 1676.06 1417.87 1667.96 1415.6 1659L1415.34 1657.95V1657.95ZM293.336 1582.32C293.401 1581.4 292.224 1581.08 291.636 1581.62C283.757 1588.68 278.738 1597.15 269.175 1602.63C259.562 1608.13 249.657 1607.68 239.636 1611.23C236.236 1612.44 236.22 1616.99 239.636 1618.18C258.599 1624.81 291.897 1602.35 293.336 1582.32ZM1184.32 1580.88C1182.21 1580.23 1180.09 1580.13 1177.98 1580.6C1176.54 1580.6 1175.2 1580.96 1173.98 1581.68C1172.62 1582.06 1171.46 1582.75 1170.46 1583.72C1169.27 1584.43 1168.32 1585.39 1167.6 1586.59C1166.19 1588.13 1165.25 1589.92 1164.76 1591.98L1164.2 1596.22V1596.22L1164.76 1600.46V1600.46C1165.3 1601.71 1165.84 1602.99 1166.36 1604.25L1167.82 1606.23C1169 1607.81 1169.19 1607.83 1172.06 1609.96C1173.89 1611.12 1175.87 1611.76 1177.98 1611.84C1179.39 1612.23 1180.79 1612.23 1182.21 1611.84C1183.64 1611.84 1184.98 1611.48 1186.22 1610.76C1187.56 1610.38 1188.74 1609.7 1189.74 1608.71C1191.47 1607.59 1192.82 1606.1 1193.82 1604.25C1194.36 1602.99 1194.9 1601.71 1195.42 1600.46L1196 1596.22V1596.22L1195.42 1591.98V1591.98L1195.39 1591.85V1591.85C1194.64 1589.2 1193.3 1586.9 1191.37 1584.95L1188.2 1582.5V1582.5C1186.96 1581.7 1185.67 1581.29 1184.32 1580.88ZM421.236 1584.05C416.71 1582.81 411.739 1584.12 408.422 1587.44C405.102 1590.76 403.794 1595.71 405.037 1600.24C406.263 1604.66 409.81 1608.24 414.24 1609.43C415.564 1609.79 416.904 1609.99 418.261 1609.92C420.535 1609.91 422.659 1609.33 424.636 1608.19L427.187 1606.21V1606.21C428.431 1605.07 429.295 1603.71 429.804 1602.14C430.605 1600.64 430.964 1599.02 430.899 1597.27L430.914 1596.96C430.964 1596.33 430.883 1595.71 430.685 1595.11C430.685 1594.47 430.587 1593.85 430.423 1593.24C429.23 1588.83 425.634 1585.26 421.236 1584.05ZM1397.4 1539.77C1395.95 1539.72 1394.59 1540.01 1393.33 1540.68C1392.01 1541.11 1390.88 1541.83 1389.93 1542.88C1388.89 1543.82 1388.17 1544.97 1387.74 1546.28C1387.07 1547.54 1386.78 1548.9 1386.83 1550.35C1386.83 1552.26 1387.32 1554.04 1388.27 1555.68C1388.82 1556.4 1389.38 1557.12 1389.93 1557.82C1391.24 1559.15 1392.79 1560.05 1394.59 1560.55L1395.64 1560.91V1560.91C1397.18 1561.47 1398.68 1561.5 1400.28 1561.29C1401.97 1561.06 1403.52 1560.6 1404.89 1559.56C1406.23 1558.77 1407.29 1557.71 1408.08 1556.37L1408.98 1554.24V1554.24C1409.17 1553.52 1409.26 1552.44 1409.31 1551.69C1409.31 1551.58 1409.31 1551.48 1409.32 1551.36C1409.32 1550.73 1409.13 1549.17 1408.96 1548.53C1408.6 1547.19 1407.87 1545.92 1407.03 1544.84C1406.31 1543.71 1405.33 1542.83 1404.12 1542.17L1404.02 1542.09V1542.09L1403.89 1542.01C1403.52 1541.75 1403.13 1541.49 1402.73 1541.21C1401.1 1540.26 1399.32 1539.77 1397.4 1539.77ZM553.264 1528.16C550.648 1528.16 548.213 1528.83 545.957 1530.14C545.877 1530.17 545.795 1530.2 545.73 1530.24C543.57 1531.51 541.855 1533.23 540.579 1535.39C539.271 1537.63 538.619 1540.05 538.619 1542.63C538.619 1545.23 539.271 1547.63 540.579 1549.88C541.855 1552.04 543.57 1553.75 545.73 1555.03C545.795 1555.08 545.877 1555.11 545.957 1555.14C548.213 1556.45 550.648 1557.1 553.264 1557.12C555.863 1557.1 558.299 1556.45 560.556 1555.14C564.968 1552.56 567.732 1547.73 567.732 1542.63C567.732 1537.53 564.968 1532.7 560.556 1530.14C558.299 1528.83 555.863 1528.16 553.264 1528.16ZM1232.12 1509.25L1231.68 1509.24C1229.94 1509.17 1228.33 1509.53 1226.84 1510.33C1225.29 1510.84 1223.93 1511.71 1222.78 1512.93L1220.4 1514.93V1514.93L1219.71 1515.49C1219.59 1515.58 1219.48 1515.68 1219.37 1515.78C1217.77 1517.4 1216.67 1519.29 1216.05 1521.48C1215.85 1522.75 1215.69 1523.99 1215.56 1525.25C1215.2 1528.52 1217.13 1531.87 1219.25 1534.19C1220.4 1535.42 1221.76 1536.28 1223.32 1536.81C1224.83 1537.59 1226.46 1537.95 1228.2 1537.89C1231.74 1537.58 1235.11 1536.82 1237.66 1534.08C1237.96 1533.75 1238.23 1533.41 1238.53 1533.06L1240.57 1530.71V1530.71C1242.12 1529.14 1243.2 1527.29 1243.79 1525.16C1243.96 1524.04 1244.1 1522.92 1244.25 1521.81C1244.4 1518.46 1242.76 1515.32 1240.57 1512.93C1238.55 1510.72 1235.11 1509.37 1232.12 1509.25ZM1314.63 1474.81C1297.63 1474.81 1297.67 1501.19 1314.63 1501.19C1331.62 1501.19 1331.59 1474.81 1314.63 1474.81ZM459.895 1437.83L459.359 1437.84C456.546 1437.86 453.916 1438.56 451.478 1439.98L448.309 1442.42V1442.42C446.378 1444.38 445.039 1446.67 444.286 1449.32C444.108 1450.71 443.926 1452.1 443.73 1453.47C443.648 1455.63 444.108 1457.64 445.087 1459.51C445.708 1461.44 446.787 1463.12 448.309 1464.54C449.729 1466.07 451.398 1467.14 453.342 1467.77C455.205 1468.75 457.216 1469.21 459.359 1469.12C462.186 1469.11 464.819 1468.4 467.255 1466.98C468.316 1466.16 469.362 1465.35 470.424 1464.54C472.205 1462.73 473.484 1460.64 474.249 1458.25L474.429 1457.64L475.002 1453.47C475.083 1451.33 474.627 1449.32 473.646 1447.46C473.024 1445.51 471.945 1443.84 470.424 1442.42C469.002 1440.9 467.319 1439.82 465.39 1439.2C463.683 1438.3 461.85 1437.84 459.895 1437.83ZM536.465 1388.45C534.945 1388.4 533.539 1388.71 532.213 1389.4C530.858 1389.84 529.681 1390.61 528.684 1391.67C526.573 1393.36 525.284 1396.73 525.284 1399.46C525.284 1402.19 526.573 1405.56 528.684 1407.24C530.057 1408.6 531.675 1409.55 533.539 1410.07L536.465 1410.46V1410.46C539.309 1410.59 542.203 1409.11 544.23 1407.24C544.638 1406.87 545.031 1406.49 545.439 1406.13C547.285 1404.43 548.086 1401.89 548.202 1399.46C548.251 1398.17 547.971 1396.96 547.384 1395.83C547.007 1394.65 546.355 1393.65 545.439 1392.78C545.031 1392.42 544.638 1392.05 544.23 1391.67C542.021 1389.63 539.44 1388.6 536.465 1388.45ZM51.3234 1300.49C40.5819 1287.4 46.8362 1278.08 62.9787 1281.32C90.7846 1285.08 116.954 1302.66 141.443 1315.27C168.172 1329.39 195.718 1341.04 222.983 1354.31C211.733 1361.22 203.367 1372.04 196.975 1384.38C184.217 1374.69 167.907 1370.05 151.987 1369.45C123.104 1341.78 75.2715 1335.44 51.3234 1300.49ZM1320.36 1343.94C1317.45 1343.95 1314.72 1344.64 1312.16 1346.01L1311.61 1346.31L1308.12 1349.03C1306.42 1350.6 1305.22 1352.46 1304.52 1354.6C1303.44 1356.66 1302.95 1358.9 1303.03 1361.29C1302.95 1363.68 1303.44 1365.9 1304.52 1367.96C1305.22 1370.12 1306.42 1371.97 1308.12 1373.54C1309.08 1374.8 1310.32 1375.78 1311.81 1376.5C1313.2 1377.07 1314.57 1377.66 1315.96 1378.25C1317.52 1378.74 1319.31 1378.8 1321 1378.89C1324.05 1378.87 1326.9 1378.1 1329.55 1376.56L1332.98 1373.92V1373.92C1334.63 1372.38 1335.81 1370.56 1336.5 1368.45C1337.47 1366.6 1337.96 1364.61 1337.96 1362.49L1337.95 1361.91C1337.95 1361.78 1337.95 1361.63 1337.93 1361.49C1337.74 1359.95 1337.52 1358.41 1337.31 1356.88C1336.77 1354.62 1335.74 1352.64 1334.21 1350.97C1333.81 1350.19 1333.29 1349.55 1332.62 1349.03C1330.46 1346.87 1327.91 1345.39 1324.97 1344.56C1323.43 1344.36 1321.9 1344.15 1320.36 1343.94ZM561.871 1300.61L561.374 1300.62C559.167 1300.62 557.123 1301.18 555.226 1302.27C554.394 1302.91 553.576 1303.55 552.759 1304.18C551.237 1305.71 550.191 1307.5 549.62 1309.56L549.177 1312.8V1312.8C549.13 1314.49 549.473 1316.04 550.241 1317.5C550.73 1319 551.566 1320.31 552.759 1321.42C553.854 1322.61 555.16 1323.45 556.68 1323.94C558.121 1324.71 559.69 1325.05 561.374 1324.99C563.564 1324.99 565.624 1324.43 567.52 1323.32C568.337 1322.7 569.171 1322.06 569.988 1321.42C571.367 1320.03 572.361 1318.4 572.958 1316.55L573.111 1316.04L573.55 1312.8C573.616 1311.12 573.272 1309.56 572.506 1308.11C572.015 1306.59 571.164 1305.28 569.988 1304.18C568.877 1302.99 567.567 1302.16 566.064 1301.67C564.756 1300.97 563.354 1300.63 561.871 1300.61V1300.61ZM1224.81 1282.9L1224.24 1282.91C1220.99 1282.92 1217.96 1283.74 1215.15 1285.38C1213.94 1286.31 1212.73 1287.24 1211.52 1288.19C1209.28 1290.43 1207.74 1293.08 1206.88 1296.14L1206.24 1300.91V1300.91C1206.14 1303.4 1206.67 1305.7 1207.79 1307.85C1208.51 1310.09 1209.75 1312.02 1211.52 1313.65C1213.14 1315.4 1215.07 1316.64 1217.31 1317.36C1219.45 1318.49 1221.75 1319.02 1224.24 1318.92C1227.49 1318.92 1230.52 1318.1 1233.33 1316.46C1234.53 1315.53 1235.74 1314.58 1236.97 1313.65C1239.2 1311.39 1240.73 1308.75 1241.6 1305.7L1242.24 1300.91V1300.91C1242.33 1298.44 1241.81 1296.12 1240.68 1293.98C1239.96 1291.76 1238.72 1289.81 1236.97 1288.19C1235.34 1286.42 1233.41 1285.18 1231.17 1284.46C1229.19 1283.42 1227.08 1282.91 1224.81 1282.9ZM619.519 1237.94C618.032 1237.54 616.546 1237.54 615.058 1237.94C612.835 1238.04 610.757 1238.71 608.828 1239.93L605.445 1242.55V1242.55C605.397 1242.6 605.347 1242.65 605.298 1242.71C603.254 1244.77 601.834 1247.21 601.049 1250.01L600.459 1254.41V1254.41C600.377 1256.68 600.851 1258.8 601.881 1260.77C602.495 1262.65 603.51 1264.3 604.907 1265.72L605.445 1266.24C606.967 1267.88 608.748 1269.04 610.824 1269.71C612.131 1270.48 613.554 1270.86 615.058 1270.86C617.28 1271.36 619.519 1271.27 621.744 1270.56C623.067 1269.99 624.409 1269.43 625.747 1268.88L626.174 1268.63C631.225 1265.87 634.347 1260.08 634.347 1254.41C634.347 1248.73 631.225 1242.92 626.174 1240.16C626.025 1240.1 625.896 1240.01 625.747 1239.93C623.818 1238.71 621.744 1238.04 619.519 1237.94Z" fill="black"/>
<path fill-rule="evenodd" clip-rule="evenodd" d="M487.745 833.516C497.831 770.883 500.626 707.187 513.835 645.045C526.258 586.567 549.487 531.308 590.076 486.729C626.399 446.844 673.363 417.555 723.777 398.994C821.989 362.837 934.945 371.014 1029.95 413.223C1118.88 452.715 1189.81 525.781 1231.15 613.467C1258.01 670.441 1271.51 731.014 1277.51 793.532C1284.16 862.984 1284.88 933.156 1287.6 1002.85C1287.92 1011.46 1288.4 1020.06 1288.51 1028.66C1288.64 1038.08 1284.83 1046.34 1281.73 1055.1C1281.51 1055.72 1281.2 1056.31 1280.83 1056.87C1283.17 1057.16 1285.5 1057.51 1287.84 1057.88C1290.46 1058.29 1290.34 1062.54 1287.84 1063.05C1266.67 1067.37 1244.91 1067.97 1223.39 1069.04C1201.07 1070.15 1178.73 1070.75 1156.38 1071.5C1134.59 1072.24 1112.8 1072.98 1091.01 1073.71C1079.57 1074.1 1068.12 1074.5 1056.68 1074.87C1051.24 1075.05 1045.79 1075.25 1040.33 1075.43C1037.62 1075.53 1034.89 1075.61 1032.18 1075.71C1029.97 1075.77 1026.37 1077.18 1026.14 1075.56C1025.74 1075.81 1025.29 1076.02 1024.82 1076.17C1024.3 1076.44 1023.79 1076.77 1023.3 1077.13C1020.64 1078.96 1016.6 1078.73 1013.9 1077.13C1013.66 1076.98 1013.39 1076.82 1013.13 1076.66C1011.12 1075.46 1009.72 1073.73 1008.93 1071.77C997.75 1085.27 977.954 1070.1 989.397 1055.81C995.543 1048.12 1056.68 859.681 1031.38 716.132L929.894 702.69C911.341 700.809 876.816 697.065 876.816 697.065C876.816 697.065 868.365 669.477 865.945 660.597C865.766 659.943 865.586 659.272 865.39 658.618C862.97 662.888 860.535 667.138 858.083 671.39L845.561 696.852C845.561 696.852 660.744 693.761 615.43 694.056C614.662 694.056 611.017 749.166 612.668 773.434C616.002 822.167 619.55 870.867 624.486 919.468C627.637 950.589 635.232 981.109 646.546 1009.79C664.417 1055.1 716.306 1098.17 766.9 1098.17C798.393 1098.17 869.558 1072.65 879.922 1067.5C890.286 1062.35 896.461 1076.41 887.017 1082.04C867.885 1093.43 815.147 1117.6 766.9 1117.6C696.833 1117.6 643.939 1051.1 637.449 1041.56C573.648 1038.06 508.391 1039.68 444.671 1046.01C439.326 1046.53 434.716 1040.09 436.432 1035.17C459.318 969.642 476.727 902.054 487.745 833.516Z" fill="black"/>
<path fill-rule="evenodd" clip-rule="evenodd" d="M656.918 905.691C656.522 904.452 654.801 904.455 654.405 905.691C650.812 916.895 648.702 927.866 643.337 938.401C642.011 939.767 641.062 941.485 640.553 943.341C638.047 947.507 635.255 951.461 632.131 955.204C628.201 959.914 625.342 964.337 627.425 970.766C628.452 973.933 631.103 975.96 634.444 976.112C643.618 976.527 648.844 967.775 652.089 958.65C674.792 966.192 699.789 970.462 723.584 968.586C742.925 967.058 763.995 962.211 781.312 952.331C781.209 956.063 781.067 959.798 780.936 963.534C780.695 970.445 778.836 978.009 779.555 984.795C780.268 991.529 784.09 996.74 791.016 997.783C796.978 998.679 804.357 994.697 805.519 988.309C806.866 980.895 804.371 975.716 802.32 968.717C800.507 962.532 799.085 956.213 797.522 949.961C795.946 943.649 794.656 937.283 793.488 930.887C792.631 926.205 793.249 920.929 791.591 916.519C791.461 916.174 791.124 915.927 790.743 916.036C781.924 918.571 781.423 932.776 781.459 940.398L781.461 940.774C781.474 942.327 781.46 943.881 781.443 945.433L778.073 946.171C759.574 950.175 741.606 953.217 722.155 952.113C699.338 950.82 679.274 942.475 657.621 936.756C659.419 926.468 659.972 915.245 656.918 905.691ZM733.219 702.962C723.094 699.493 712.148 697.855 701.5 698.38C678.676 699.508 656.933 709.922 641.969 727.274C627.841 743.655 620.163 764.2 620.263 785.874C620.37 808.139 626.216 833.212 637.224 852.702C660.353 893.652 714.376 893.936 753.2 877.609C794.631 860.187 811.488 816.247 801.508 773.766C794.005 741.819 768.411 703.485 733.219 702.962ZM665.72 734.588C677.944 724.771 693.338 720.361 708.892 721.476C716.619 722.03 724.47 724.06 731.485 727.358C735.214 729.111 738.547 731.559 742.218 733.384C745.492 735.01 749.036 735.958 752.413 737.326L753.671 737.86C759.217 740.339 764.803 736.792 765.081 731.623C777.147 748.559 782.87 771.523 782.777 791.896C782.708 806.899 779.136 822.483 770.528 834.974C760.96 848.856 745.085 856.179 729.164 860.068C713.915 863.792 697.289 865.084 682.005 860.853C666.14 856.464 655.892 844.42 650.06 829.406C637.407 796.838 636.363 758.164 665.72 734.588ZM720.203 774.972C713.28 765.518 700.861 765.016 694.025 774.972C689.723 781.239 690.355 787.276 690.697 794.488L690.763 796.11C690.965 801.818 690.938 807.826 693.075 813.101C695.82 819.873 701.154 824.212 708.71 823.314C713.158 822.783 716.883 820.127 719.044 816.464L719.119 816.506V816.506C722.15 810.454 722.932 804.312 723.443 797.706L723.796 792.861C724.225 786.491 724.247 780.495 720.203 774.972Z" fill="black"/>
</svg>
